<svg width="77" height="65" viewBox="0 0 77 65" fill="none" xmlns="http://www.w3.org/2000/svg">
<path d="M52.9375 9.28571H62.5625C65.2244 9.28571 67.375 11.3605 67.375 13.9286V51.0714C67.375 53.6395 65.2244 55.7143 62.5625 55.7143H52.9375C50.2756 55.7143 48.125 57.7891 48.125 60.3571C48.125 62.9252 50.2756 65 52.9375 65H62.5625C70.5332 65 77 58.7612 77 51.0714V13.9286C77 6.23884 70.5332 0 62.5625 0H52.9375C50.2756 0 48.125 2.07478 48.125 4.64286C48.125 7.21094 50.2756 9.28571 52.9375 9.28571ZM51.8096 35.0246C52.5314 34.3717 52.9375 33.4576 52.9375 32.5C52.9375 31.5424 52.5314 30.6283 51.8096 29.9754L30.1533 10.2433C29.1006 9.28571 27.5666 9.02455 26.2432 9.57589C24.9197 10.1272 24.0625 11.3895 24.0625 12.7679V23.2143H4.8125C2.15059 23.2143 0 25.2891 0 27.8571V37.1429C0 39.7109 2.15059 41.7857 4.8125 41.7857H24.0625V52.2321C24.0625 53.625 24.9197 54.8728 26.2432 55.4241C27.5666 55.9754 29.1006 55.7143 30.1533 54.7567L51.8096 35.0246Z" fill="#345A89"/>
</svg>
